Sex And The City 2(2010) 720p       

Verenigde Staten
Komedie
146 minuten

geregisseerd door Michael Patrick King
met Sarah Jessica Parker, Kim Cattrall en Kristin Davis

Het is inmiddels twee jaar geleden sinds Carrie en Mr. Big in het huwelijksbootje stapten. Hoewel ze nog gelukkig met elkaar zijn, begint bij Carrie het gevoel op te spelen dat ze te veel op een traditioneel getrouwd koppel beginnen te lijken. Bij Charlotte begint het ook te knagen, als blijkt dat het moederschap zwaarder is dan ze had verwacht. Miranda heeft op haar beurt te maken met een vrouwonvriendelijke baas die haar bij het minste of geringste de mond snoert. En dan is er nog Samantha die haar seksuele wereld ziet instorten omdat ze in een menopauze is beland. De vriendinnen kunnen dus best een vakantie gebruiken om even uit het dagelijkse leven te ontsnappen.

English

Storyline
Two years have passed since Carrie Bradshaw finally bagged John "Mr. Big" Preston, the man she was always meant to be with. Just as her friend Charlotte must deal with her young daughter's "terrible two's", Carrie must deal with her relationship taking a turn for the worse - Big likes to watch old black-and-white movies on TV and eat take-out food, which prevents Carrie from feeling like the free-wheeling party girl she used to be. Meanwhile, Miranda copes with a new boss that can't handle an intelligent, powerful woman, and Samantha works a public relations angle that gets the fashionable foursome an all-expense-paid trip to Abu Dhabi.



INFO

DATE : 15.10.2010
SOURCE : sex.and.the.city.2.2010.720p.bluray.x264-sinners
GENRE : Komedie
RAR COUNT : 78 x 100MB
SUBTITLES : Eng and NL-srt added and synced @ MKV by Monstie
AUDIO : AC3/640kbps en 5.1 DTS/1509kbps *
VIDEO : 1280x720 @ 4906 kbps
MOVIE INFO :



* Monstie zorgt ook voor AC3 bij een DTS film. Hierdoor is de MKV wel iets groter dan de source.
Dit ivm toevoegen van AC3 stream.

Spotinformatie 
Categorie : Beeld 
Formaat : HD Overig 
Bron : sex.and.the.city.2.2010.720p.bluray.x264-sinners
 
Ondertitels : Nederlands English (instelbaar)
 
Genre : Anders

Format                           : Matroska
File size                        : 7.22 GiB
Duration                         : 2h 26mn
Overall bit rate                 : 7 056 Kbps
Encoded date                     : UTC 2010-10-15 07:16:38
Writing application              : mkvmerge v4.3.0 ('Escape from the Island') built on Sep  5 2010 10:30:51
Writing library                  : libebml v1.0.0 + libmatroska v1.0.0

Video
ID                               : 1
Format                           : AVC
Format/Info                      : Advanced Video Codec
Format profile                   : High@L3.1
Format settings, CABAC           : Yes
Format settings, ReFrames        : 5 frames
Muxing mode                      : Container profile=Unknown@3.1
Codec ID                         : V_MPEG4/ISO/AVC
Duration                         : 2h 26mn
Bit rate                         : 4 766 Kbps
Nominal bit rate                 : 4 906 Kbps
Width                            : 1 280 pixels
Height                           : 720 pixels
Display aspect ratio             : 16/9
Frame rate                       : 23.976 fps
Resolution                       : 24 bits
Colorimetry                      : 4:2:0
Scan type                        : Progressive
Bits/(Pixel*Frame)               : 0.216
Stream size                      : 4.87 GiB (67%)
Writing library                  : x264 core 107 r1745 4785e8e
Encoding settings                : cabac=1 / ref=5 / deblock=1:0:0 / analyse=0x3:0x113 / me=umh / subme=7 / psy=1 / psy_rd=1.00:0.00 / mixed_ref=1 / me_range=16 / chroma_me=1 / trellis=1 / 8x8dct=1 / cqm=0 / deadzone=21,11 / fast_pskip=0 / chroma_qp_offset=-2 / threads=6 / sliced_threads=0 / nr=0 / decimate=1 / interlaced=0 / constrained_intra=0 / bframes=3 / b_pyramid=2 / b_adapt=1 / b_bias=0 / direct=1 / weightb=1 / open_gop=0 / weightp=2 / keyint=250 / keyint_min=23 / scenecut=40 / intra_refresh=0 / rc_lookahead=40 / rc=2pass / mbtree=1 / bitrate=4906 / ratetol=1.0 / qcomp=0.60 / qpmin=10 / qpmax=51 / qpstep=4 / cplxblur=20.0 / qblur=0.5 / ip_ratio=1.40 / aq=1:1.00

Audio #1
ID                               : 2
Format                           : AC-3
Format/Info                      : Audio Coding 3
Codec ID                         : A_AC3
Duration                         : 2h 26mn
Bit rate mode                    : Constant
Bit rate                         : 640 Kbps
Channel(s)                       : 6 channels
Channel positions                : Front: L C R, Surround: L R, LFE
Sampling rate                    : 48.0 KHz
Stream size                      : 670 MiB (9%)
Title                            : AC3

Audio #2
ID                               : 3
Format                           : DTS
Format/Info                      : Digital Theater Systems
Codec ID                         : A_DTS
Duration                         : 2h 26mn
Bit rate mode                    : Constant
Bit rate                         : 1 510 Kbps
Channel(s)                       : 6 channels
Channel positions                : Front: L C R, Surround: L R, LFE
Sampling rate                    : 48.0 KHz
Resolution                       : 24 bits
Stream size                      : 1.54 GiB (21%)
Title                            : DTS

Text #1
ID                               : 4
Format                           : UTF-8
Codec ID                         : S_TEXT/UTF8
Codec ID/Info                    : UTF-8 Plain Text
Title                            : Nederlands
Language                         : Dutch

Text #2
ID                               : 5
Format                           : UTF-8
Codec ID                         : S_TEXT/UTF8
Codec ID/Info                    : UTF-8 Plain Text
Title                            : Eng


 
Weblink :  http://www.moviemeter.nl/film/62068
Weblink :  http://www.imdb.com/title/tt1261945 

******************************************

Brought to you by 


2Lions Team

meer zien??
Kom dan eens kijken op ons forum 
                            
http://www.2lions-site.nl


2Lions the site to be for all your Dutch MOVIES and more

******************************************


DON T HIT AND RUN Niet gelijk afhaken als de FILM binnen is blijf seeden. 

Don`t quit after you finished the download, but keep seeding


There are fake torrents from uploaders who use our team name.
Those are not ours, or members from our team.
We 2Lions-Team are not responsible for the fake posts on our name

Wij 2Lions-Team zijn niet verantwoordelijk voor die zieke FAKE posten die op onze naam worden gedaan



Please check our site !!!
                           
http://www.2lions-site.nl 


 
 
 
